<svg width="1000" height="1000" viewBox="0 0 1000 1000" fill="none" xmlns="http://www.w3.org/2000/svg">
<rect width="1000" height="1000" fill="white"/>
<path fill-rule="evenodd" clip-rule="evenodd" d="M422.525 758.31C426.655 758.31 430.467 759.321 433.855 761.414C437.274 763.504 439.918 766.491 441.798 770.239C443.712 774.044 444.59 778.445 444.59 783.31C444.59 788.178 443.711 792.586 441.798 796.401L441.794 796.407C439.914 800.14 437.275 803.12 433.867 805.22L433.863 805.222C430.472 807.305 426.657 808.31 422.525 808.31C418.383 808.31 414.558 807.307 411.154 805.227L411.137 805.215C407.739 803.111 405.109 800.123 403.232 796.381C401.32 792.567 400.441 788.166 400.441 783.31C400.441 778.445 401.318 774.044 403.232 770.239L403.594 769.546C405.441 766.127 407.953 763.38 411.143 761.42L411.786 761.039C415.028 759.199 418.637 758.31 422.525 758.31ZM422.525 771.527C420.832 771.527 419.438 771.948 418.234 772.729L418.219 772.74C417.058 773.486 416.034 774.643 415.212 776.414L415.211 776.412C414.444 778.079 413.972 780.33 413.972 783.31C413.972 786.289 414.444 788.551 415.216 790.236C416.032 791.978 417.052 793.138 418.219 793.899L418.447 794.041C419.601 794.725 420.93 795.093 422.525 795.093C424.207 795.093 425.598 794.677 426.806 793.903C427.989 793.141 429.01 791.98 429.815 790.235L429.819 790.227C430.6 788.545 431.077 786.287 431.077 783.31C431.077 780.331 430.6 778.084 429.823 776.421L429.812 776.396C429.056 774.75 428.115 773.637 427.039 772.892L426.796 772.729C425.589 771.946 424.201 771.527 422.525 771.527ZM438.49 794.696C438.583 794.51 438.675 794.322 438.763 794.132L438.78 794.093C438.687 794.296 438.59 794.498 438.49 794.696ZM432.694 792.782C432.715 792.744 432.738 792.706 432.759 792.667L432.772 792.641C432.747 792.688 432.72 792.735 432.694 792.782Z" fill="#0A2A66"/>
<path fill-rule="evenodd" clip-rule="evenodd" d="M521.044 758.31C525.173 758.31 528.985 759.321 532.373 761.414H532.375C535.793 763.504 538.436 766.491 540.315 770.239C542.23 774.044 543.107 778.445 543.107 783.31C543.107 788.178 542.229 792.586 540.315 796.401L540.312 796.407C538.433 800.14 535.793 803.12 532.386 805.22L532.381 805.222C528.989 807.305 525.175 808.309 521.044 808.31C516.902 808.31 513.075 807.307 509.672 805.227L509.654 805.215C506.257 803.111 503.627 800.123 501.751 796.381C499.839 792.567 498.96 788.166 498.96 783.31C498.96 778.445 499.837 774.044 501.751 770.239L502.112 769.546C503.96 766.127 506.472 763.38 509.661 761.42L510.304 761.039C513.545 759.199 517.155 758.31 521.044 758.31ZM521.044 771.527C519.35 771.527 517.957 771.948 516.753 772.729L516.737 772.74C515.576 773.486 514.552 774.643 513.729 776.414L513.729 776.412C512.961 778.079 512.49 780.33 512.49 783.31C512.49 786.289 512.963 788.551 513.734 790.236C514.551 791.978 515.571 793.138 516.737 793.899L516.965 794.041C518.118 794.725 519.448 795.093 521.044 795.093C522.725 795.093 524.116 794.677 525.323 793.903C526.506 793.141 527.528 791.98 528.333 790.235L528.338 790.227C529.119 788.545 529.596 786.287 529.596 783.31C529.596 780.331 529.118 778.084 528.341 776.421L528.33 776.396C527.575 774.75 526.633 773.637 525.557 772.892L525.313 772.729C524.106 771.946 522.719 771.527 521.044 771.527ZM502.678 784.128C502.679 784.19 502.682 784.251 502.684 784.312C502.681 784.209 502.678 784.106 502.676 784.002L502.678 784.128Z" fill="#0A2A66"/>
<path d="M575.299 758.31C577.811 758.31 580.218 758.676 582.493 759.441C584.787 760.195 586.879 761.32 588.738 762.822C590.617 764.326 592.16 766.161 593.367 768.295C594.602 770.464 595.398 772.882 595.805 775.496L596.48 779.845H582.828L582.278 776.749C582.116 775.832 581.832 775.125 581.479 774.568C581.063 773.915 580.568 773.379 579.988 772.939C579.401 772.495 578.731 772.148 577.954 771.906L577.941 771.903C577.169 771.66 576.314 771.527 575.358 771.527C573.665 771.527 572.261 771.948 571.038 772.736C569.871 773.497 568.847 774.665 568.025 776.434C567.255 778.122 566.786 780.368 566.786 783.31C566.786 786.288 567.257 788.549 568.028 790.234C568.847 791.994 569.873 793.147 571.043 793.893C572.274 794.677 573.673 795.093 575.339 795.093C576.283 795.093 577.138 794.965 577.92 794.73C578.707 794.485 579.384 794.139 579.975 793.7C580.55 793.273 581.04 792.751 581.45 792.113L581.456 792.103C581.828 791.528 582.118 790.826 582.287 789.942L582.872 786.887L596.512 786.931L595.801 791.294C595.401 793.741 594.617 796.034 593.437 798.146L593.436 798.146C592.268 800.244 590.759 802.069 588.921 803.6L588.918 803.602C587.091 805.121 585.019 806.28 582.734 807.09C580.4 807.917 577.911 808.31 575.299 808.31C571.157 808.31 567.335 807.306 563.941 805.222L563.93 805.215C560.532 803.111 557.902 800.123 556.026 796.381L556.021 796.37C554.125 792.559 553.255 788.162 553.255 783.31C553.255 778.445 554.132 774.043 556.046 770.239L556.407 769.546C558.256 766.125 560.769 763.379 563.961 761.418C567.351 759.322 571.166 758.31 575.299 758.31Z" fill="#0A2A66"/>
<path fill-rule="evenodd" clip-rule="evenodd" d="M627.773 758.31C631.903 758.31 635.715 759.321 639.104 761.414C642.522 763.504 645.166 766.491 647.046 770.239C648.96 774.044 649.838 778.445 649.838 783.31C649.838 788.178 648.959 792.586 647.046 796.401L647.042 796.407C645.162 800.14 642.523 803.12 639.115 805.22L639.111 805.222C635.72 807.305 631.905 808.31 627.773 808.31C623.631 808.31 619.806 807.307 616.402 805.227L616.385 805.215C612.987 803.111 610.357 800.123 608.48 796.381C606.568 792.567 605.689 788.166 605.689 783.31C605.69 778.445 606.566 774.044 608.48 770.239L608.842 769.546C610.69 766.127 613.201 763.38 616.391 761.42L617.033 761.039C620.275 759.199 623.885 758.31 627.773 758.31ZM627.115 804.538C627.147 804.539 627.18 804.538 627.212 804.539C627.132 804.537 627.052 804.534 626.972 804.531C627.019 804.533 627.067 804.537 627.115 804.538ZM636.177 802.577C636.341 802.491 636.505 802.404 636.667 802.312L636.678 802.306C636.512 802.399 636.345 802.489 636.177 802.577ZM643.738 794.696C643.542 795.086 643.336 795.464 643.122 795.832C643.228 795.651 643.331 795.468 643.433 795.281L643.739 794.695C643.837 794.5 643.931 794.302 644.022 794.102C643.93 794.302 643.836 794.501 643.738 794.696ZM627.773 771.527C626.08 771.527 624.686 771.948 623.482 772.729L623.467 772.74C622.306 773.486 621.282 774.643 620.46 776.414L620.458 776.412C619.691 778.079 619.22 780.33 619.22 783.31C619.22 786.289 619.692 788.551 620.464 790.236C621.28 791.978 622.301 793.138 623.467 793.899L623.695 794.041C624.849 794.725 626.178 795.093 627.773 795.093C629.455 795.093 630.846 794.677 632.054 793.903C633.237 793.141 634.259 791.98 635.063 790.235L635.067 790.227C635.848 788.545 636.325 786.287 636.325 783.31C636.325 780.331 635.848 778.084 635.071 776.421L635.06 776.396C634.254 774.64 633.236 773.491 632.069 772.747L632.044 772.729C630.837 771.946 629.449 771.527 627.773 771.527ZM646.112 784.289C646.114 784.236 646.117 784.184 646.118 784.131L646.119 784.029C646.117 784.116 646.115 784.203 646.112 784.289ZM644.077 772.655C644.06 772.618 644.045 772.581 644.028 772.544L643.983 772.451C644.015 772.519 644.046 772.587 644.077 772.655Z" fill="#0A2A66"/>
<path fill-rule="evenodd" clip-rule="evenodd" d="M325.585 758.874C329.185 758.874 332.479 759.537 335.266 761.103C337.949 762.611 340.047 764.737 341.438 767.463L341.68 767.956C342.853 770.436 343.409 773.147 343.409 776.021C343.409 779.105 342.768 782.003 341.413 784.63C340.019 787.344 337.915 789.463 335.233 790.978L335.227 790.981C332.442 792.546 329.154 793.209 325.564 793.209H320.913V807.745H307.343V758.874H325.585ZM320.913 780.396H325.007C326.617 780.396 327.561 780.109 328.082 779.818C328.705 779.458 329.063 779.045 329.292 778.563C329.599 777.92 329.798 777.099 329.798 776.021C329.798 774.943 329.598 774.137 329.299 773.516C329.083 773.067 328.741 772.675 328.109 772.331L328.096 772.323C327.578 772.038 326.608 771.749 324.928 771.749H320.913V780.396Z" fill="#0A2A66"/>
<path fill-rule="evenodd" clip-rule="evenodd" d="M372.654 758.874C376.214 758.874 379.47 759.493 382.234 760.957C384.93 762.377 387.06 764.418 388.477 767.083C389.848 769.651 390.477 772.525 390.478 775.598C390.478 778.664 389.838 781.532 388.446 784.091C387.425 785.977 386.034 787.534 384.337 788.771L394.582 807.745H379.095L370.812 792.099H367.982V807.745H354.412V758.874H372.654ZM367.982 779.204H372.076C373.755 779.204 374.795 778.954 375.391 778.678L375.404 778.671C376.016 778.39 376.279 778.084 376.432 777.796C376.666 777.354 376.867 776.669 376.867 775.598C376.867 774.525 376.664 773.8 376.402 773.3L376.387 773.27C376.213 772.929 375.929 772.605 375.326 772.315L375.305 772.306L375.283 772.295C374.723 772.017 373.703 771.749 371.997 771.749H367.982V779.204Z" fill="#0A2A66"/>
<path d="M491.261 771.769H478.54V807.745H464.988V771.769H452.288V758.874H491.261V771.769Z" fill="#0A2A66"/>
<path d="M674.869 794.85H693.343V807.745H661.299V758.874H674.869V794.85Z" fill="#0A2A66"/>
<path fill-rule="evenodd" clip-rule="evenodd" d="M685.275 558.31C695.582 558.31 705.23 559.786 714.193 562.772C723.172 565.746 731.157 569.963 738.11 575.441C745.125 580.923 750.834 587.455 755.211 595.025C759.607 602.629 762.33 610.964 763.392 619.991L763.859 623.965H715.056L714.346 621.334C713.486 618.149 712.243 615.419 710.649 613.101L710.64 613.086L710.63 613.072C709.022 610.684 707.056 608.671 704.722 607.017C702.402 605.374 699.706 604.113 696.598 603.261L696.572 603.253L696.546 603.246C693.44 602.344 689.971 601.875 686.115 601.875C678.369 601.875 671.849 603.738 666.406 607.333C661.026 610.924 656.763 616.214 653.69 623.401L653.687 623.41C650.624 630.521 649.021 639.336 649.021 649.972C649.021 660.676 650.572 669.599 653.543 676.843C656.51 684.078 660.72 689.414 666.102 693.052C671.46 696.674 678.071 698.573 686.115 698.573C693.364 698.573 699.257 697.397 703.926 695.212C708.667 692.963 712.13 689.865 714.474 685.943C716.187 683.076 717.311 679.791 717.802 676.038H683.986V638.604H765.264V664.922C765.264 680.825 761.878 694.666 754.94 706.293C748.103 717.847 738.647 726.739 726.637 732.922C714.692 739.1 701.042 742.139 685.779 742.139C668.845 742.139 653.801 738.464 640.759 731.003C627.719 723.543 617.563 712.902 610.317 699.171L610.315 699.165C603.052 685.342 599.492 669.071 599.492 650.476C599.492 636.019 601.642 623.06 606.025 611.661C610.383 600.274 616.488 590.549 624.368 582.551L624.377 582.541C632.279 574.58 641.428 568.539 651.799 564.438L651.806 564.436C662.216 560.342 673.383 558.31 685.275 558.31ZM662.446 694.801L662.497 694.839C662.403 694.767 662.31 694.693 662.217 694.62C662.294 694.68 662.369 694.742 662.446 694.801ZM716.948 688.69C716.965 688.666 716.982 688.641 716.998 688.616L717.006 688.604C716.987 688.633 716.967 688.661 716.948 688.69ZM649.129 675.198C649.138 675.226 649.148 675.253 649.157 675.28C649.074 675.037 648.993 674.793 648.912 674.547L649.129 675.198ZM647.211 632.17C647.191 632.262 647.172 632.354 647.152 632.446C647.195 632.248 647.237 632.051 647.281 631.854L647.211 632.17ZM649.712 623.737C649.843 623.398 649.978 623.061 650.115 622.728L650.117 622.721C649.979 623.056 649.844 623.395 649.712 623.737ZM714.066 611.82C714.018 611.745 713.971 611.669 713.922 611.594L713.9 611.562C713.957 611.647 714.011 611.734 714.066 611.82ZM735.922 578.244C735.722 578.086 735.52 577.93 735.318 577.774L735.299 577.76C735.507 577.92 735.715 578.081 735.922 578.244Z" fill="#0A2A66"/>
<path fill-rule="evenodd" clip-rule="evenodd" d="M245.628 560.661C258.812 560.661 270.09 562.52 279.332 566.394C288.575 570.245 295.735 575.737 300.564 582.973H300.566C305.423 590.165 307.811 598.46 307.811 607.725C307.811 614.787 306.327 621.225 303.277 626.951L303.273 626.959L303.27 626.965C300.258 632.558 296.1 637.205 290.835 640.879C288.529 642.488 286.07 643.876 283.468 645.051C286.808 646.059 290.018 647.455 293.093 649.24C299.581 652.974 304.78 658.184 308.665 664.801C312.623 671.486 314.529 679.299 314.529 688.104C314.529 697.98 312.005 706.919 306.905 714.812L306.897 714.822C301.785 722.673 294.438 728.791 285.025 733.231L285.009 733.24C275.519 737.657 264.169 739.787 251.087 739.787H170.343V560.661H245.628ZM251.087 736.23C251.472 736.23 251.855 736.228 252.236 736.225L252.273 736.224C251.88 736.228 251.484 736.23 251.087 736.23ZM219.032 699.161H241.177C249.868 699.161 255.528 697.491 258.855 694.82L258.864 694.813L258.873 694.806C262.232 692.145 263.992 688.469 263.992 683.316C263.992 679.466 263.098 676.356 261.458 673.83L261.45 673.819L261.442 673.807C259.772 671.188 257.386 669.132 254.147 667.655L254.128 667.646L254.107 667.638C250.882 666.12 246.862 665.288 241.933 665.288H219.032V699.161ZM304.844 665.369C304.76 665.237 304.677 665.104 304.592 664.973L304.558 664.921C304.654 665.069 304.749 665.219 304.844 665.369ZM219.032 631.381H238.488C242.628 631.381 246.17 630.691 249.182 629.4C252.159 628.124 254.343 626.347 255.881 624.106L255.895 624.086L255.908 624.067C257.438 621.901 258.281 619.201 258.281 615.788C258.281 610.976 256.634 607.505 253.471 604.948C250.194 602.3 245.552 600.783 239.16 600.783H219.032V631.381Z" fill="#0A2A66"/>
<path d="M454.457 601.539H376.095V629.701H448.326V670.663H376.095V698.909H454.457V739.787H327.405V560.661H454.457V601.539Z" fill="#0A2A66"/>
<path d="M522.069 698.909H593.629V739.787H473.38V560.661H522.069V698.909Z" fill="#0A2A66"/>
<path d="M831.343 739.787H782.654V560.661H831.343V739.787Z" fill="#0A2A66"/>
<path d="M310.549 225.02H224.808V510.428H310.549V543.446H166V192.001H310.549V225.02Z" fill="#0A2A66"/>
<path d="M834.687 543.445H690.138V510.427H775.879V225.019H690.138V192H834.687V543.445Z" fill="#0A2A66"/>
<path d="M362.412 419.446H307.239V315.999H362.412V419.446Z" fill="#0A2A66"/>
<path d="M445.17 419.446H389.998V315.999H445.17V419.446Z" fill="#0A2A66"/>
<path d="M527.929 419.446H472.757V315.999H527.929V419.446Z" fill="#0A2A66"/>
<path d="M610.688 419.446H555.516V315.999H610.688V419.446Z" fill="#0A2A66"/>
<path d="M693.446 419.446H638.274V315.999H693.446V419.446Z" fill="#0A2A66"/>
<path fill-rule="evenodd" clip-rule="evenodd" d="M422.525 758.31C426.655 758.31 430.467 759.321 433.855 761.414C437.274 763.504 439.918 766.491 441.798 770.239C443.712 774.044 444.59 778.445 444.59 783.31C444.59 788.178 443.711 792.586 441.798 796.401L441.794 796.407C439.914 800.14 437.275 803.12 433.867 805.22L433.863 805.222C430.472 807.305 426.657 808.31 422.525 808.31C418.383 808.31 414.558 807.307 411.154 805.227L411.137 805.215C407.739 803.111 405.109 800.123 403.232 796.381C401.32 792.567 400.441 788.166 400.441 783.31C400.441 778.445 401.318 774.044 403.232 770.239L403.594 769.546C405.441 766.127 407.953 763.38 411.143 761.42L411.786 761.039C415.028 759.199 418.637 758.31 422.525 758.31ZM422.525 771.527C420.832 771.527 419.438 771.948 418.234 772.729L418.219 772.74C417.058 773.486 416.034 774.643 415.212 776.414L415.211 776.412C414.444 778.079 413.972 780.33 413.972 783.31C413.972 786.289 414.444 788.551 415.216 790.236C416.032 791.978 417.052 793.138 418.219 793.899L418.447 794.041C419.601 794.725 420.93 795.093 422.525 795.093C424.207 795.093 425.598 794.677 426.806 793.903C427.989 793.141 429.01 791.98 429.815 790.235L429.819 790.227C430.6 788.545 431.077 786.287 431.077 783.31C431.077 780.331 430.6 778.084 429.823 776.421L429.812 776.396C429.056 774.75 428.115 773.637 427.039 772.892L426.796 772.729C425.589 771.946 424.201 771.527 422.525 771.527ZM438.49 794.696C438.583 794.51 438.675 794.322 438.763 794.132L438.78 794.093C438.687 794.296 438.59 794.498 438.49 794.696ZM432.694 792.782C432.715 792.744 432.738 792.706 432.759 792.667L432.772 792.641C432.747 792.688 432.72 792.735 432.694 792.782Z" stroke="#0A2A66" stroke-linejoin="round"/>
<path fill-rule="evenodd" clip-rule="evenodd" d="M521.044 758.31C525.173 758.31 528.985 759.321 532.373 761.414H532.375C535.793 763.504 538.436 766.491 540.315 770.239C542.23 774.044 543.107 778.445 543.107 783.31C543.107 788.178 542.229 792.586 540.315 796.401L540.312 796.407C538.433 800.14 535.793 803.12 532.386 805.22L532.381 805.222C528.989 807.305 525.175 808.309 521.044 808.31C516.902 808.31 513.075 807.307 509.672 805.227L509.654 805.215C506.257 803.111 503.627 800.123 501.751 796.381C499.839 792.567 498.96 788.166 498.96 783.31C498.96 778.445 499.837 774.044 501.751 770.239L502.112 769.546C503.96 766.127 506.472 763.38 509.661 761.42L510.304 761.039C513.545 759.199 517.155 758.31 521.044 758.31ZM521.044 771.527C519.35 771.527 517.957 771.948 516.753 772.729L516.737 772.74C515.576 773.486 514.552 774.643 513.729 776.414L513.729 776.412C512.961 778.079 512.49 780.33 512.49 783.31C512.49 786.289 512.963 788.551 513.734 790.236C514.551 791.978 515.571 793.138 516.737 793.899L516.965 794.041C518.118 794.725 519.448 795.093 521.044 795.093C522.725 795.093 524.116 794.677 525.323 793.903C526.506 793.141 527.528 791.98 528.333 790.235L528.338 790.227C529.119 788.545 529.596 786.287 529.596 783.31C529.596 780.331 529.118 778.084 528.341 776.421L528.33 776.396C527.575 774.75 526.633 773.637 525.557 772.892L525.313 772.729C524.106 771.946 522.719 771.527 521.044 771.527ZM502.678 784.128C502.679 784.19 502.682 784.251 502.684 784.312C502.681 784.209 502.678 784.106 502.676 784.002L502.678 784.128Z" stroke="#0A2A66" stroke-linejoin="round"/>
<path d="M575.299 758.31C577.811 758.31 580.218 758.676 582.493 759.441C584.787 760.195 586.879 761.32 588.738 762.822C590.617 764.326 592.16 766.161 593.367 768.295C594.602 770.464 595.398 772.882 595.805 775.496L596.48 779.845H582.828L582.278 776.749C582.116 775.832 581.832 775.125 581.479 774.568C581.063 773.915 580.568 773.379 579.988 772.939C579.401 772.495 578.731 772.148 577.954 771.906L577.941 771.903C577.169 771.66 576.314 771.527 575.358 771.527C573.665 771.527 572.261 771.948 571.038 772.736C569.871 773.497 568.847 774.665 568.025 776.434C567.255 778.122 566.786 780.368 566.786 783.31C566.786 786.288 567.257 788.549 568.028 790.234C568.847 791.994 569.873 793.147 571.043 793.893C572.274 794.677 573.673 795.093 575.339 795.093C576.283 795.093 577.138 794.965 577.92 794.73C578.707 794.485 579.384 794.139 579.975 793.7C580.55 793.273 581.04 792.751 581.45 792.113L581.456 792.103C581.828 791.528 582.118 790.826 582.287 789.942L582.872 786.887L596.512 786.931L595.801 791.294C595.401 793.741 594.617 796.034 593.437 798.146L593.436 798.146C592.268 800.244 590.759 802.069 588.921 803.6L588.918 803.602C587.091 805.121 585.019 806.28 582.734 807.09C580.4 807.917 577.911 808.31 575.299 808.31C571.157 808.31 567.335 807.306 563.941 805.222L563.93 805.215C560.532 803.111 557.902 800.123 556.026 796.381L556.021 796.37C554.125 792.559 553.255 788.162 553.255 783.31C553.255 778.445 554.132 774.043 556.046 770.239L556.407 769.546C558.256 766.125 560.769 763.379 563.961 761.418C567.351 759.322 571.166 758.31 575.299 758.31Z" stroke="#0A2A66" stroke-linejoin="round"/>
<path fill-rule="evenodd" clip-rule="evenodd" d="M627.773 758.31C631.903 758.31 635.715 759.321 639.104 761.414C642.522 763.504 645.166 766.491 647.046 770.239C648.96 774.044 649.838 778.445 649.838 783.31C649.838 788.178 648.959 792.586 647.046 796.401L647.042 796.407C645.162 800.14 642.523 803.12 639.115 805.22L639.111 805.222C635.72 807.305 631.905 808.31 627.773 808.31C623.631 808.31 619.806 807.307 616.402 805.227L616.385 805.215C612.987 803.111 610.357 800.123 608.48 796.381C606.568 792.567 605.689 788.166 605.689 783.31C605.69 778.445 606.566 774.044 608.48 770.239L608.842 769.546C610.69 766.127 613.201 763.38 616.391 761.42L617.033 761.039C620.275 759.199 623.885 758.31 627.773 758.31ZM627.115 804.538C627.147 804.539 627.18 804.538 627.212 804.539C627.132 804.537 627.052 804.534 626.972 804.531C627.019 804.533 627.067 804.537 627.115 804.538ZM636.177 802.577C636.341 802.491 636.505 802.404 636.667 802.312L636.678 802.306C636.512 802.399 636.345 802.489 636.177 802.577ZM643.738 794.696C643.542 795.086 643.336 795.464 643.122 795.832C643.228 795.651 643.331 795.468 643.433 795.281L643.739 794.695C643.837 794.5 643.931 794.302 644.022 794.102C643.93 794.302 643.836 794.501 643.738 794.696ZM627.773 771.527C626.08 771.527 624.686 771.948 623.482 772.729L623.467 772.74C622.306 773.486 621.282 774.643 620.46 776.414L620.458 776.412C619.691 778.079 619.22 780.33 619.22 783.31C619.22 786.289 619.692 788.551 620.464 790.236C621.28 791.978 622.301 793.138 623.467 793.899L623.695 794.041C624.849 794.725 626.178 795.093 627.773 795.093C629.455 795.093 630.846 794.677 632.054 793.903C633.237 793.141 634.259 791.98 635.063 790.235L635.067 790.227C635.848 788.545 636.325 786.287 636.325 783.31C636.325 780.331 635.848 778.084 635.071 776.421L635.06 776.396C634.254 774.64 633.236 773.491 632.069 772.747L632.044 772.729C630.837 771.946 629.449 771.527 627.773 771.527ZM646.112 784.289C646.114 784.236 646.117 784.184 646.118 784.131L646.119 784.029C646.117 784.116 646.115 784.203 646.112 784.289ZM644.077 772.655C644.06 772.618 644.045 772.581 644.028 772.544L643.983 772.451C644.015 772.519 644.046 772.587 644.077 772.655Z" stroke="#0A2A66" stroke-linejoin="round"/>
<path fill-rule="evenodd" clip-rule="evenodd" d="M325.585 758.874C329.185 758.874 332.479 759.537 335.266 761.103C337.949 762.611 340.047 764.737 341.438 767.463L341.68 767.956C342.853 770.436 343.409 773.147 343.409 776.021C343.409 779.105 342.768 782.003 341.413 784.63C340.019 787.344 337.915 789.463 335.233 790.978L335.227 790.981C332.442 792.546 329.154 793.209 325.564 793.209H320.913V807.745H307.343V758.874H325.585ZM320.913 780.396H325.007C326.617 780.396 327.561 780.109 328.082 779.818C328.705 779.458 329.063 779.045 329.292 778.563C329.599 777.92 329.798 777.099 329.798 776.021C329.798 774.943 329.598 774.137 329.299 773.516C329.083 773.067 328.741 772.675 328.109 772.331L328.096 772.323C327.578 772.038 326.608 771.749 324.928 771.749H320.913V780.396Z" stroke="#0A2A66" stroke-linejoin="round"/>
<path fill-rule="evenodd" clip-rule="evenodd" d="M372.654 758.874C376.214 758.874 379.47 759.493 382.234 760.957C384.93 762.377 387.06 764.418 388.477 767.083C389.848 769.651 390.477 772.525 390.478 775.598C390.478 778.664 389.838 781.532 388.446 784.091C387.425 785.977 386.034 787.534 384.337 788.771L394.582 807.745H379.095L370.812 792.099H367.982V807.745H354.412V758.874H372.654ZM367.982 779.204H372.076C373.755 779.204 374.795 778.954 375.391 778.678L375.404 778.671C376.016 778.39 376.279 778.084 376.432 777.796C376.666 777.354 376.867 776.669 376.867 775.598C376.867 774.525 376.664 773.8 376.402 773.3L376.387 773.27C376.213 772.929 375.929 772.605 375.326 772.315L375.305 772.306L375.283 772.295C374.723 772.017 373.703 771.749 371.997 771.749H367.982V779.204Z" stroke="#0A2A66" stroke-linejoin="round"/>
<path d="M491.261 771.769H478.54V807.745H464.988V771.769H452.288V758.874H491.261V771.769Z" stroke="#0A2A66" stroke-linejoin="round"/>
<path d="M674.869 794.85H693.343V807.745H661.299V758.874H674.869V794.85Z" stroke="#0A2A66" stroke-linejoin="round"/>
<path fill-rule="evenodd" clip-rule="evenodd" d="M685.275 558.31C695.582 558.31 705.23 559.786 714.193 562.772C723.172 565.746 731.157 569.963 738.11 575.441C745.125 580.923 750.834 587.455 755.211 595.025C759.607 602.629 762.33 610.964 763.392 619.991L763.859 623.965H715.056L714.346 621.334C713.486 618.149 712.243 615.419 710.649 613.101L710.64 613.086L710.63 613.072C709.022 610.684 707.056 608.671 704.722 607.017C702.402 605.374 699.706 604.113 696.598 603.261L696.572 603.253L696.546 603.246C693.44 602.344 689.971 601.875 686.115 601.875C678.369 601.875 671.849 603.738 666.406 607.333C661.026 610.924 656.763 616.214 653.69 623.401L653.687 623.41C650.624 630.521 649.021 639.336 649.021 649.972C649.021 660.676 650.572 669.599 653.543 676.843C656.51 684.078 660.72 689.414 666.102 693.052C671.46 696.674 678.071 698.573 686.115 698.573C693.364 698.573 699.257 697.397 703.926 695.212C708.667 692.963 712.13 689.865 714.474 685.943C716.187 683.076 717.311 679.791 717.802 676.038H683.986V638.604H765.264V664.922C765.264 680.825 761.878 694.666 754.94 706.293C748.103 717.847 738.647 726.739 726.637 732.922C714.692 739.1 701.042 742.139 685.779 742.139C668.845 742.139 653.801 738.464 640.759 731.003C627.719 723.543 617.563 712.902 610.317 699.171L610.315 699.165C603.052 685.342 599.492 669.071 599.492 650.476C599.492 636.019 601.642 623.06 606.025 611.661C610.383 600.274 616.488 590.549 624.368 582.551L624.377 582.541C632.279 574.58 641.428 568.539 651.799 564.438L651.806 564.436C662.216 560.342 673.383 558.31 685.275 558.31ZM662.446 694.801L662.497 694.839C662.403 694.767 662.31 694.693 662.217 694.62C662.294 694.68 662.369 694.742 662.446 694.801ZM716.948 688.69C716.965 688.666 716.982 688.641 716.998 688.616L717.006 688.604C716.987 688.633 716.967 688.661 716.948 688.69ZM649.129 675.198C649.138 675.226 649.148 675.253 649.157 675.28C649.074 675.037 648.993 674.793 648.912 674.547L649.129 675.198ZM647.211 632.17C647.191 632.262 647.172 632.354 647.152 632.446C647.195 632.248 647.237 632.051 647.281 631.854L647.211 632.17ZM649.712 623.737C649.843 623.398 649.978 623.061 650.115 622.728L650.117 622.721C649.979 623.056 649.844 623.395 649.712 623.737ZM714.066 611.82C714.018 611.745 713.971 611.669 713.922 611.594L713.9 611.562C713.957 611.647 714.011 611.734 714.066 611.82ZM735.922 578.244C735.722 578.086 735.52 577.93 735.318 577.774L735.299 577.76C735.507 577.92 735.715 578.081 735.922 578.244Z" stroke="#0A2A66" stroke-linejoin="round"/>
<path fill-rule="evenodd" clip-rule="evenodd" d="M245.628 560.661C258.812 560.661 270.09 562.52 279.332 566.394C288.575 570.245 295.735 575.737 300.564 582.973H300.566C305.423 590.165 307.811 598.46 307.811 607.725C307.811 614.787 306.327 621.225 303.277 626.951L303.273 626.959L303.27 626.965C300.258 632.558 296.1 637.205 290.835 640.879C288.529 642.488 286.07 643.876 283.468 645.051C286.808 646.059 290.018 647.455 293.093 649.24C299.581 652.974 304.78 658.184 308.665 664.801C312.623 671.486 314.529 679.299 314.529 688.104C314.529 697.98 312.005 706.919 306.905 714.812L306.897 714.822C301.785 722.673 294.438 728.791 285.025 733.231L285.009 733.24C275.519 737.657 264.169 739.787 251.087 739.787H170.343V560.661H245.628ZM251.087 736.23C251.472 736.23 251.855 736.228 252.236 736.225L252.273 736.224C251.88 736.228 251.484 736.23 251.087 736.23ZM219.032 699.161H241.177C249.868 699.161 255.528 697.491 258.855 694.82L258.864 694.813L258.873 694.806C262.232 692.145 263.992 688.469 263.992 683.316C263.992 679.466 263.098 676.356 261.458 673.83L261.45 673.819L261.442 673.807C259.772 671.188 257.386 669.132 254.147 667.655L254.128 667.646L254.107 667.638C250.882 666.12 246.862 665.288 241.933 665.288H219.032V699.161ZM304.844 665.369C304.76 665.237 304.677 665.104 304.592 664.973L304.558 664.921C304.654 665.069 304.749 665.219 304.844 665.369ZM219.032 631.381H238.488C242.628 631.381 246.17 630.691 249.182 629.4C252.159 628.124 254.343 626.347 255.881 624.106L255.895 624.086L255.908 624.067C257.438 621.901 258.281 619.201 258.281 615.788C258.281 610.976 256.634 607.505 253.471 604.948C250.194 602.3 245.552 600.783 239.16 600.783H219.032V631.381Z" stroke="#0A2A66" stroke-linejoin="round"/>
<path d="M454.457 601.539H376.095V629.701H448.326V670.663H376.095V698.909H454.457V739.787H327.405V560.661H454.457V601.539Z" stroke="#0A2A66" stroke-linejoin="round"/>
<path d="M522.069 698.909H593.629V739.787H473.38V560.661H522.069V698.909Z" stroke="#0A2A66" stroke-linejoin="round"/>
<path d="M831.343 739.787H782.654V560.661H831.343V739.787Z" stroke="#0A2A66" stroke-linejoin="round"/>
<path d="M310.549 225.02H224.808V510.428H310.549V543.446H166V192.001H310.549V225.02Z" stroke="#0A2A66" stroke-linejoin="round"/>
<path d="M834.687 543.445H690.138V510.427H775.879V225.019H690.138V192H834.687V543.445Z" stroke="#0A2A66" stroke-linejoin="round"/>
<path d="M362.412 419.446H307.239V315.999H362.412V419.446Z" stroke="#0A2A66" stroke-linejoin="round"/>
<path d="M445.17 419.446H389.998V315.999H445.17V419.446Z" stroke="#0A2A66" stroke-linejoin="round"/>
<path d="M527.929 419.446H472.757V315.999H527.929V419.446Z" stroke="#0A2A66" stroke-linejoin="round"/>
<path d="M610.688 419.446H555.516V315.999H610.688V419.446Z" stroke="#0A2A66" stroke-linejoin="round"/>
<path d="M693.446 419.446H638.274V315.999H693.446V419.446Z" stroke="#0A2A66" stroke-linejoin="round"/>
</svg>
